<svg width="26" height="26" viewBox="0 0 26 26" fill="none" xmlns="http://www.w3.org/2000/svg">
<path d="M12.6265 6.27027C12.3497 4.76155 13.0631 3.20892 13.9222 2.16257C14.8691 1.00806 16.4939 0.122687 17.8825 0.0253906C18.117 1.60718 17.4715 3.14834 16.6218 4.23846C15.7102 5.40957 14.143 6.31775 12.6265 6.27027ZM20.7713 11.7371C21.201 10.5384 22.0522 9.45983 23.3727 8.73214C22.0383 7.06692 20.1647 6.10015 18.3966 6.10015C16.0574 6.10015 15.0683 7.21464 13.4435 7.21464C11.7698 7.21464 10.5 6.10015 8.47377 6.10015C6.48685 6.10015 4.37186 7.31118 3.03053 9.37945C2.53734 10.144 2.20325 11.0937 2.02105 12.1516C1.51547 15.1192 2.27069 18.9846 4.52349 22.4167C5.61885 24.0821 7.07886 25.9581 8.9862 25.9744C10.6853 25.991 11.1673 24.8881 13.4674 24.8767C15.771 24.8636 16.2075 25.9858 17.9043 25.9696C19.8122 25.9535 21.3527 23.8775 22.448 22.2123C23.228 21.0173 23.5229 20.4137 24.1294 19.0627C21.0456 17.8997 19.7773 14.5017 20.7713 11.7371Z" fill="white"/>
</svg>
