<svg width="13" height="13" viewBox="0 0 13 13" fill="none" xmlns="http://www.w3.org/2000/svg">
<g clip-path="url(#clip0_27_528)">
<path d="M6.49985 0.000305176C2.90994 0.00048291 0.000304688 2.91022 0 6.50015C0.000304688 10.0901 2.90994 12.9998 6.49985 13C10.0901 12.9998 12.9998 10.0901 13 6.50015C12.9998 2.91022 10.0901 0.00048291 6.49985 0.000305176ZM2.4783 2.47858C3.07092 1.88627 3.79255 1.42551 4.59728 1.13986C4.21177 1.60641 3.8904 2.20388 3.6386 2.89476H2.10163C2.22046 2.75016 2.34599 2.61092 2.4783 2.47858ZM1.66593 3.50414H3.44292C3.2142 4.31483 3.07704 5.22648 3.05284 6.19547H0.820803C0.872777 5.21021 1.17559 4.2934 1.66593 3.50414ZM1.66593 9.49617C1.17559 8.7069 0.872777 7.7901 0.820803 6.80484H3.05495C3.07935 7.77283 3.21263 8.68608 3.44104 9.49619L1.66593 9.49617ZM2.4783 10.5217C2.34599 10.3894 2.22044 10.2501 2.10161 10.1055H3.63959C3.74827 10.4045 3.86859 10.6881 4.00298 10.9487C4.17955 11.2899 4.3777 11.5954 4.5958 11.86C3.79163 11.5744 3.07051 11.1136 2.4783 10.5217ZM6.19526 12.1792C6.10015 12.1742 6.00562 12.1671 5.9118 12.1574C5.76225 12.0903 5.61417 11.9987 5.46746 11.8791C5.01978 11.5145 4.60479 10.8972 4.28939 10.1055H6.19524V12.1792H6.19526ZM6.19526 9.49617H4.07677C3.83614 8.70472 3.68789 7.7871 3.66219 6.80481H6.19524V9.49617H6.19526ZM6.19526 6.19547H3.66412C3.68971 5.21259 3.83868 4.29576 4.07949 3.50414H6.19529L6.19526 6.19547ZM6.19526 2.89476H4.29221C4.37115 2.69697 4.45387 2.50598 4.54444 2.33122C4.8146 1.80753 5.13274 1.39456 5.46749 1.1212C5.61417 1.00161 5.76225 0.90995 5.91183 0.842918C6.00564 0.833219 6.10015 0.826059 6.19529 0.821108L6.19526 2.89476ZM11.3342 3.50414C11.8245 4.2934 12.1272 5.21023 12.1792 6.19547H9.94505C9.92065 5.22747 9.78737 4.31422 9.55886 3.50414H11.3342ZM10.5217 2.47858C10.654 2.61089 10.7796 2.75016 10.8984 2.89476H9.3603C9.25161 2.59584 9.1312 2.31217 8.99691 2.05154C8.82037 1.71036 8.6222 1.40489 8.40412 1.14027C9.20837 1.42609 9.92939 1.8867 10.5217 2.47858ZM6.80464 0.821108C6.89975 0.826059 6.99428 0.833397 7.088 0.842918C7.23755 0.910178 7.38565 1.00161 7.53243 1.1212C7.98022 1.48578 8.39511 2.10308 8.71048 2.89473H6.80464V0.821108ZM6.80464 3.50414H8.92313C9.16373 4.29559 9.31211 5.21318 9.33771 6.19547H6.80464V3.50414ZM6.80464 6.80484H9.3357C9.31013 7.78771 9.16117 8.70451 8.92034 9.49619H6.80464V6.80484ZM7.53241 11.8791C7.38563 11.9987 7.23752 12.0901 7.08797 12.1574C6.99425 12.1669 6.89972 12.1742 6.80461 12.1792V10.1055H8.70766C8.62872 10.3033 8.546 10.4943 8.45546 10.6691C8.18533 11.1927 7.86716 11.6057 7.53241 11.8791ZM10.5217 10.5217C9.92918 11.114 9.20738 11.5748 8.40262 11.8604C8.78823 11.3938 9.10937 10.7964 9.36129 10.1055H10.8984C10.7795 10.2501 10.654 10.3894 10.5217 10.5217ZM11.3342 9.49617H9.55688C9.7856 8.68547 9.92286 7.77362 9.94706 6.80481H12.1792C12.1272 7.7901 11.8245 8.7069 11.3342 9.49617Z" fill="black"/>
</g>
<defs>
<clipPath id="clip0_27_528">
<rect width="13" height="13" fill="white"/>
</clipPath>
</defs>
</svg>
