<svg width="33" height="33" viewBox="0 0 33 33" fill="none" xmlns="http://www.w3.org/2000/svg">
<g id="loop-svgrepo-com 1">
<path id="Vector" fill-rule="evenodd" clip-rule="evenodd" d="M7.38354 7.38359C3.83952 10.9276 3.83952 16.6736 7.38354 20.2176C10.9275 23.7617 16.6736 23.7617 20.2175 20.2176C23.7615 16.6736 23.7615 10.9276 20.2175 7.38359C16.6736 3.83959 10.9275 3.83959 7.38354 7.38359ZM17.884 17.8842C15.6288 20.1394 11.9723 20.1394 9.71699 17.8842C7.4617 15.6289 7.4617 11.9723 9.71699 9.71705C11.9723 7.46177 15.6288 7.46177 17.884 9.71705C20.1394 11.9723 20.1394 15.6289 17.884 17.8842Z" fill="black"/>
<path id="Vector_2" d="M18.4675 21.9676C17.5009 21.0011 17.5009 19.4341 18.4675 18.4675C19.434 17.5009 21.001 17.5009 21.9676 18.4675L27.8012 24.3011C28.7678 25.2676 28.7678 26.8348 27.8012 27.8012C26.8348 28.7678 25.2676 28.7678 24.301 27.8012L18.4675 21.9676Z" fill="black"/>
</g>
</svg>
