<svg width="84" height="84" viewBox="0 0 84 84" fill="none" xmlns="http://www.w3.org/2000/svg">
<path id="Vector" d="M41.7778 0C33.5149 0 25.4376 2.45022 18.5673 7.04083C11.697 11.6314 6.34222 18.1562 3.18016 25.7901C0.0181015 33.424 -0.809238 41.8241 0.802767 49.9282C2.41477 58.0323 6.39372 65.4764 12.2364 71.3191C18.0792 77.1618 25.5233 81.1408 33.6274 82.7528C41.7315 84.3648 50.1316 83.5375 57.7655 80.3754C65.3993 77.2133 71.9241 71.8586 76.5147 64.9883C81.1053 58.1179 83.5556 50.0406 83.5556 41.7778C83.5556 30.6976 79.154 20.0713 71.3191 12.2364C63.4843 4.40158 52.8579 0 41.7778 0ZM38.1222 17.4944C38.1222 16.5249 38.5074 15.5951 39.1929 14.9096C39.8785 14.224 40.8083 13.8389 41.7778 13.8389C42.7473 13.8389 43.6771 14.224 44.3627 14.9096C45.0482 15.5951 45.4333 16.5249 45.4333 17.4944V48.8278C45.4333 49.7973 45.0482 50.7271 44.3627 51.4126C43.6771 52.0982 42.7473 52.4833 41.7778 52.4833C40.8083 52.4833 39.8785 52.0982 39.1929 51.4126C38.5074 50.7271 38.1222 49.7973 38.1222 48.8278V17.4944ZM41.7778 69.1944C40.8482 69.1944 39.9395 68.9188 39.1666 68.4024C38.3937 67.8859 37.7913 67.1519 37.4356 66.2931C37.0798 65.4342 36.9868 64.4892 37.1681 63.5775C37.3495 62.6658 37.7971 61.8283 38.4544 61.171C39.1117 60.5137 39.9492 60.0661 40.8609 59.8847C41.7726 59.7034 42.7176 59.7965 43.5764 60.1522C44.4352 60.5079 45.1693 61.1104 45.6857 61.8833C46.2021 62.6562 46.4778 63.5649 46.4778 64.4944C46.4778 65.741 45.9826 66.9364 45.1012 67.8178C44.2198 68.6993 43.0243 69.1944 41.7778 69.1944Z" fill="#FF6363"/>
</svg>
